<?xml version="1.0" encoding="utf-8"?>
<!-- Generator: Adobe Illustrator 21.1.0, SVG Export Plug-In . SVG Version: 6.00 Build 0)  -->
<svg version="1.1" id="Layer_1" xmlns="http://www.w3.org/2000/svg" xmlns:xlink="http://www.w3.org/1999/xlink" x="0px" y="0px"
	 viewBox="0 0 130 100" style="enable-background:new 0 0 130 100;" xml:space="preserve">
<style type="text/css">
	.st0{fill:#d8d587;}
	.st1{opacity:0.5;fill:#d8d587;enable-background:new    ;}
</style>
<g id="ww29HX_2_">
	<g>
		<path class="st0" d="M19.1,58.8c-1.9,0-3.8,0-5.6,0c-0.6,0-1.1-0.3-1.4-0.8c-0.1-0.1-0.2-0.2-0.2-0.3c-0.3-0.5-0.3-1.1-0.2-1.6
			c0-0.1,0.1-0.2,0.2-0.4c0.3-0.7,0.6-1.3,1-2c0.3-0.6,0.6-1.1,0.9-1.7c0.2-0.4,0.4-0.9,0.6-1.3c0.3-0.6,0.6-1.1,0.8-1.7
			c0.1-0.1,0.1-0.3,0.2-0.4c0.3-0.5,0.5-1,0.8-1.6c0.1-0.1,0.1-0.3,0.1-0.4c0-1.3,0-2.6,0-3.9c0-0.3,0-0.6,0.2-0.8
			c0.1-0.1,0.2-0.2,0.3-0.2c0.4-0.2,0.8-0.2,1.2-0.2c0.9,0,1.9,0,2.8,0c0.3,0,0.6,0.1,0.9,0.2c0.4,0.2,0.6,0.6,0.6,1
			c0,1.3,0,2.5,0,3.8c0,0.5,0.2,0.9,0.4,1.4c0.1,0.2,0.2,0.5,0.3,0.7c0.1,0.2,0.2,0.3,0.3,0.5c0.2,0.4,0.4,0.9,0.6,1.3
			c0.3,0.6,0.5,1.1,0.8,1.7c0.2,0.4,0.4,0.8,0.6,1.3c0.1,0.2,0.2,0.4,0.3,0.5c0.3,0.6,0.6,1.3,0.9,1.9c0.1,0.3,0.2,0.7,0.2,1
			c0,0.6-0.3,1.1-0.7,1.5c-0.3,0.3-0.6,0.4-1,0.4C22.8,58.8,21,58.8,19.1,58.8L19.1,58.8z M19,52.7L19,52.7c1.2,0,2.4,0,3.5,0
			c0.3,0,0.4-0.1,0.3-0.4c-0.2-0.4-0.4-0.8-0.6-1.1c-0.1-0.2-0.1-0.4-0.2-0.5c-0.3-0.7-0.6-1.4-0.9-2c-0.1-0.2-0.2-0.4-0.3-0.7
			c-0.1-0.3-0.2-0.5-0.2-0.8c0-1.3,0-2.5,0-3.8c0-0.4-0.1-0.5-0.5-0.5c-0.7,0-1.4,0-2.1,0c-0.4,0-0.4,0-0.4,0.4c0,1.1,0,2.2,0,3.3
			c0,0.4,0,0.8-0.2,1.1c-0.2,0.5-0.4,0.9-0.6,1.4c-0.3,0.7-0.6,1.3-0.9,2c-0.2,0.4-0.4,0.8-0.6,1.2c0,0.1-0.1,0.2-0.1,0.3
			s0.2,0.1,0.3,0.1C16.6,52.7,17.8,52.7,19,52.7z"/>
		<path class="st1" d="M17,61c2.8,0,5.6,0,8.4,0c0.3,0,0.6,0,0.9,0.2c0.5,0.3,0.8,0.8,0.8,1.4c0,0.9-0.8,1.5-1.6,1.5
			c-5.7,0-7.1,0-12.8,0c-0.5,0-1-0.1-1.3-0.6c-0.5-0.6-0.5-1.3,0-2c0.3-0.4,0.7-0.5,1.1-0.5C15.5,61,14.1,61,17,61L17,61z"/>
		<path class="st1" d="M17,36.8c2.8,0,5.6,0,8.4,0c0.3,0,0.6,0,0.9,0.2c0.5,0.3,0.8,0.8,0.8,1.4c0,0.9-0.8,1.5-1.6,1.5
			c-5.7,0-7.1,0-12.8,0c-0.5,0-1-0.1-1.3-0.6c-0.5-0.6-0.5-1.3,0-2c0.3-0.4,0.7-0.5,1.1-0.5C15.5,36.8,14.1,36.8,17,36.8L17,36.8z"
			/>
	</g>
</g>
<g>
	<path class="st0" d="M49,56.3c-0.6,0.7-1.2,1.2-2.2,1.7c-1.1,0.5-2.4,0.8-4,0.8c-2,0-3.7-0.6-4.9-1.9C36.6,55.7,36,54,36,52.1v-3.4
		c0-2,0.6-3.6,1.8-4.8s2.8-1.9,4.7-1.9c2.1,0,3.7,0.5,4.7,1.5s1.6,2.3,1.8,4v0.1h-3.6c-0.1-0.9-0.4-1.5-0.8-1.9
		c-0.4-0.4-1.1-0.7-2-0.7s-1.6,0.3-2.1,1s-0.8,1.6-0.8,2.7v3.4c0,1.1,0.3,2,0.8,2.7s1.3,1,2.2,1c0.7,0,1.2-0.1,1.6-0.2
		c0.4-0.1,0.7-0.3,0.9-0.4v-2.6h-2.6v-2.5H49V56.3L49,56.3z"/>
	<path class="st0" d="M65.1,51.8c0,2-0.6,3.7-1.9,5c-1.3,1.3-2.9,2-5,2s-3.7-0.7-5-2s-1.9-3-1.9-5v-2.9c0-2,0.6-3.7,1.9-5
		c1.3-1.3,3-2,5-2s3.7,0.7,5,2c1.3,1.3,1.9,3,1.9,5V51.8z M61.4,48.9c0-1.2-0.4-2.1-0.9-2.9c-0.5-0.7-1.3-1.1-2.3-1.1
		s-1.8,0.4-2.3,1.1c-0.5,0.7-0.8,1.7-0.8,2.9v3c0,1.2,0.3,2.1,0.8,2.9c0.5,0.7,1.3,1.1,2.4,1.1c1,0,1.8-0.4,2.3-1.1
		c0.5-0.7,0.8-1.7,0.8-2.9V48.9L61.4,48.9z"/>
	<path class="st0" d="M72.9,54.1l0.1,0.6l0,0l0.1-0.5l3.2-11.9h4L75,58.6h-4l-5.3-16.3h4L72.9,54.1z"/>
	<path class="st0" d="M83.8,57.4h8.1v1.1h-9.4V42.2h1.3V57.4z"/>
	<path class="st0" d="M103.6,54h-7.5l-1.7,4.6H93l6.2-16.3h1.3l6.2,16.3h-1.4L103.6,54z M96.5,52.8h6.6L99.8,44h-0.1L96.5,52.8z"/>
	<path class="st0" d="M109.1,58.5V42.2h4.8c1.7,0,3,0.4,4,1.1c0.9,0.7,1.4,1.8,1.4,3.2c0,0.8-0.2,1.6-0.7,2.2
		c-0.5,0.6-1.1,1.1-1.9,1.3c1,0.2,1.8,0.6,2.4,1.4c0.6,0.8,0.9,1.6,0.9,2.6c0,1.5-0.5,2.6-1.4,3.4c-0.9,0.8-2.2,1.2-3.8,1.2h-5.7
		V58.5z M110.5,49.5h3.8c1.2,0,2.1-0.3,2.7-0.8s1-1.3,1-2.3s-0.3-1.8-1-2.3s-1.7-0.8-3-0.8h-3.4L110.5,49.5L110.5,49.5z M110.5,50.7
		v6.7h4.3c1.2,0,2.1-0.3,2.8-0.9c0.7-0.6,1-1.4,1-2.5c0-1-0.3-1.8-0.9-2.4c-0.6-0.6-1.5-0.9-2.7-0.9C115,50.7,110.5,50.7,110.5,50.7
		z"/>
</g>
</svg>
