<?xml version="1.0" encoding="utf-8"?>
<!-- Generator: Adobe Illustrator 16.0.0, SVG Export Plug-In . SVG Version: 6.00 Build 0)  -->
<!DOCTYPE svg PUBLIC "-//W3C//DTD SVG 1.1//EN" "http://www.w3.org/Graphics/SVG/1.1/DTD/svg11.dtd">
<svg version="1.1" id="Layer_1" xmlns="http://www.w3.org/2000/svg" xmlns:xlink="http://www.w3.org/1999/xlink" x="0px" y="0px"
	 width="189.82px" height="39.414px" viewBox="0 0 189.82 39.414" enable-background="new 0 0 189.82 39.414" xml:space="preserve">
<path fill="#FFFFFF" d="M13.299,23.214h9.84l-4.992-12.312L13.299,23.214z M24.399,26.317H12.086l-1.308,3.394
	c-0.24,0.728-0.483,1.404-0.483,1.938c0,1.502,0.63,1.985,3.634,2.132v3.055H3.026v-3.055c1.309-0.24,2.228-0.482,2.763-1.795
	l10.274-25.54l-1.646-3.781h9.012l12.506,29.321c0.532,1.213,1.406,1.555,2.811,1.795v3.055H22.703v-3.055
	c2.907-0.146,3.633-0.63,3.633-2.132c0-0.534-0.194-1.212-0.531-1.938L24.399,26.317z"/>
<path fill="#FFFFFF" d="M56.956,6.059v24.137c0,2.856,1.065,3.392,3.636,3.392h0.532c5.817,0,9.115-4.408,9.115-13.765
	c0-8.142-3.88-13.763-11.588-13.763H56.956z M44.307,2.811h15.557c12.7,0,19.631,6.302,19.631,16.381
	c0,11.147-7.125,17.644-18.078,17.644H44.307v-3.053c3.248-0.146,4.021-0.679,4.021-3.345V9.208c0-2.665-0.773-3.197-4.021-3.343
	V2.811z"/>
<path fill="#FFFFFF" d="M89.55,23.214h9.84l-4.992-12.312L89.55,23.214z M100.651,26.317H88.34l-1.309,3.394
	c-0.242,0.728-0.485,1.404-0.485,1.938c0,1.502,0.63,1.985,3.634,2.132v3.055H79.277v-3.055c1.309-0.24,2.228-0.482,2.763-1.795
	l10.275-25.54l-1.647-3.781h9.013l12.506,29.321c0.531,1.213,1.406,1.555,2.812,1.795v3.055H98.956v-3.055
	c2.905-0.146,3.632-0.63,3.632-2.132c0-0.534-0.192-1.212-0.531-1.938L100.651,26.317z"/>
<path fill="#FFFFFF" d="M132.401,20.645h1.843c4.459,0,6.882-2.52,6.882-7.412c0-4.414-2.666-7.174-7.175-7.174h-1.55V20.645z
	 M132.401,23.651v6.787c0,2.666,1.602,3.149,5.621,3.343v3.055h-18.369v-3.055c3.248-0.146,4.023-0.677,4.023-3.343V9.208
	c0-2.666-0.775-3.197-4.023-3.344V2.811h16.675c9.403,0,13.426,4.653,13.426,10.37c0,6.496-4.121,10.47-13.28,10.47H132.401z"/>
<path fill="#FFFFFF" d="M185.168,2.811l0.728,11.194h-3.394c-2.326-5.669-3.246-8.141-7.176-8.141h-1.5v24.573
	c0,2.666,1.064,3.197,4.266,3.344v3.055h-17.157v-3.055c3.248-0.146,4.36-0.678,4.36-3.344V5.865h-1.551
	c-3.928,0-4.848,2.472-7.174,8.141h-3.345l0.728-11.194L185.168,2.811L185.168,2.811z"/>
</svg>
