<?xml version="1.0" encoding="utf-8"?>
<!-- Generator: Adobe Illustrator 22.0.0, SVG Export Plug-In . SVG Version: 6.00 Build 0)  -->
<svg version="1.1" id="Layer_1" xmlns="http://www.w3.org/2000/svg" xmlns:xlink="http://www.w3.org/1999/xlink" x="0px" y="0px"
	 viewBox="0 0 2888 1244" style="enable-background:new 0 0 2888 1244;" xml:space="preserve">
<style type="text/css">
	.st0{opacity:0.5;}
	.st1{fill:none;stroke:#D8D48B;stroke-width:0.75;stroke-miterlimit:10;}
	.st2{fill:none;stroke:#D8D48B;stroke-miterlimit:10;}
</style>
<title>Artboard 7</title>
<g class="st0">
	<rect x="2493.3" y="26.1" class="st1" width="162.2" height="162.2"/>
	<rect x="1465.2" y="26.2" class="st1" width="162.2" height="162.2"/>
	<rect x="1259.6" y="437.9" class="st1" width="162.2" height="162.2"/>
	<rect x="1876.5" y="643.8" class="st1" width="162.2" height="162.2"/>
	<rect x="1670.9" y="643.9" class="st1" width="162.2" height="162.2"/>
	<rect x="1465.2" y="849.5" class="st1" width="162.2" height="162.2"/>
	<rect x="2493.4" y="1055.4" class="st1" width="162.2" height="162.2"/>
	<rect x="1876.5" y="26.4" class="st2" width="162.2" height="162.2"/>
	<rect x="2699" y="26.4" class="st2" width="162.2" height="162.2"/>
	<rect x="2082.6" y="232.3" class="st2" width="162.2" height="162.2"/>
	<rect x="2082.1" y="438.2" class="st2" width="162.2" height="162.2"/>
	<rect x="1670.8" y="438.2" class="st2" width="162.2" height="162.2"/>
	<rect x="1465.2" y="438.3" class="st2" width="162.2" height="162.2"/>
	<rect x="2287.7" y="644.2" class="st2" width="162.2" height="162.2"/>
	<rect x="1259.5" y="644.1" class="st2" width="162.2" height="162.2"/>
	<rect x="2698.9" y="644.1" class="st2" width="162.2" height="162.2"/>
	<rect x="2287.7" y="849.8" class="st2" width="162.2" height="162.2"/>
	<rect x="1876.4" y="849.7" class="st2" width="162.2" height="162.2"/>
	<rect x="1465.2" y="1055.7" class="st2" width="162.2" height="162.2"/>
	<rect x="2699" y="1055.6" class="st2" width="162.2" height="162.2"/>
	<rect x="26.4" y="27" class="st2" width="162.2" height="162.2"/>
	<rect x="26.4" y="1055.1" class="st2" width="162.2" height="162.2"/>
	<rect x="232.2" y="26.7" class="st2" width="162.2" height="162.2"/>
	<rect x="232.2" y="643.6" class="st2" width="162.2" height="162.2"/>
	<rect x="644" y="849.5" class="st2" width="162.2" height="162.2"/>
	<rect x="644" y="1055.1" class="st2" width="162.2" height="162.2"/>
	<rect x="849.7" y="27" class="st2" width="162.2" height="162.2"/>
	<rect x="1055.6" y="849.5" class="st2" width="162.2" height="162.2"/>
	<rect x="26.6" y="438.3" class="st1" width="162.2" height="162.2"/>
	<rect x="26.6" y="849.5" class="st1" width="162.2" height="162.2"/>
	<rect x="232.6" y="437.8" class="st1" width="162.2" height="162.2"/>
	<rect x="438.4" y="643.9" class="st1" width="162.2" height="162.2"/>
	<rect x="644.4" y="438.3" class="st1" width="162.2" height="162.2"/>
	<rect x="850" y="232.6" class="st1" width="162.2" height="162.2"/>
	<rect x="850" y="643.9" class="st1" width="162.2" height="162.2"/>
	<rect x="1055.8" y="438.3" class="st1" width="162.2" height="162.2"/>
</g>
</svg>
