<svg id="Layer_1" data-name="Layer 1" xmlns="http://www.w3.org/2000/svg" viewBox="0 0 1000 403.48"><defs><style>.cls-1,.cls-13{fill:#7a7656;}.cls-1,.cls-10,.cls-2,.cls-3,.cls-4,.cls-5,.cls-6,.cls-7,.cls-8,.cls-9{isolation:isolate;}.cls-2{fill:#837e5b;}.cls-3{fill:#8d8860;}.cls-4{fill:#969165;}.cls-5{fill:#a09b6a;}.cls-6{fill:#a9a470;}.cls-7{fill:#b2ae76;}.cls-8{fill:#bcb77b;}.cls-9{fill:#c5c181;}.cls-10{fill:#cfca86;}.cls-11{fill:#d8d48b;}.cls-12{opacity:0.5;}</style></defs><title>blockchange-logo</title><path class="cls-1" d="M3.52,313.19h40.1c14.86,0,23.15,9.33,23.15,20.73,0,10.2-6.56,17.11-14.17,18.67,8.64,1.38,15.73,10,15.73,20,0,12.62-8.47,21.95-23.68,21.95H3.52Zm37.16,33.69c7.26,0,11.4-4.32,11.4-10.54s-4.14-10.54-11.4-10.54H17.87v21.08ZM41.2,382c7.77,0,12.44-4.32,12.44-11.4,0-6.05-4.32-11.23-12.44-11.23H17.7V382Z"/><path class="cls-2" d="M94.77,313.19h14.34V382h35.94v12.62H94.94V313.19Z"/><path class="cls-3" d="M204.5,311.8c24.37,0,41.65,17.8,41.65,42.17s-17.28,42.16-41.65,42.16S162.85,378.34,162.85,354,180,311.8,204.5,311.8Zm0,12.62c-16.42,0-27,12.61-27,29.38s10.54,29.37,27,29.37,27-12.61,27-29.37S220.74,324.42,204.5,324.42Z"/><path class="cls-4" d="M268.44,354c0-25.06,18.66-42.17,42.16-42.17,17.11,0,27.31,8.47,33.36,18.32l-12.27,6.22a24.57,24.57,0,0,0-21.09-11.92c-15.55,0-27.47,12.27-27.47,29.38s11.92,29.37,27.47,29.37a24,24,0,0,0,21.09-11.92L344,377.47c-6.23,9.85-16.25,18.32-33.36,18.32C287.1,396,268.44,378.85,268.44,354Z"/><path class="cls-5" d="M388.88,360.19l-7.08,8.3v25.92H367.46V313H381.8V351.9L413.6,313h17.62l-33,38.37,35.59,43H416.19Z"/><path class="cls-6" d="M447,354c0-25.06,18.66-42.17,42.16-42.17,17.11,0,27.31,8.47,33.35,18.32l-12.26,6.22a24.57,24.57,0,0,0-21.09-11.92c-15.55,0-27.47,12.27-27.47,29.38s11.92,29.37,27.47,29.37a24,24,0,0,0,21.09-11.92l12.26,6.22c-6.22,9.85-16.24,18.32-33.35,18.32C465.61,396,447,378.85,447,354Z"/><path class="cls-7" d="M602.65,359H560.31v35.6H546V313.19h14.34v33.35h42.34V313.19H617v81.39H602.65Z"/><path class="cls-8" d="M698,378.85H659.5l-6,15.56H637.9l32-81.4h17.8l32,81.4H704.09Zm-34.56-12.44h30.58l-15.2-41.13Z"/><path class="cls-9" d="M755.06,335.13v59.28H740.72V313h14.69l41.65,57.72V313H811.4v81.4H797.57Z"/><path class="cls-10" d="M880,311.8c15.9,0,26.27,7.61,32.84,16.94l-11.75,6.57A26.09,26.09,0,0,0,880,324.42c-16.07,0-28,12.27-28,29.38s11.92,29.55,28,29.55a31.15,31.15,0,0,0,19.36-7.26V363.47H875V350.86h38.54v30.59A43.86,43.86,0,0,1,880,396.13c-23.5,0-42.68-16.76-42.68-42.16C837.15,328.39,856.33,311.8,880,311.8Z"/><path class="cls-11" d="M940.66,313.19h55.82V325.8H955v21.08h40.61V359.5H955v22.64h41.48v12.61H940.66Z"/><rect class="cls-11" x="380.55" y="7.42" width="32.47" height="32.47"/><rect class="cls-11" x="586.89" y="7.36" width="32.47" height="32.47"/><rect class="cls-11" x="628.16" y="7.34" width="32.47" height="32.47"/><rect class="cls-11" x="380.53" y="48.64" width="32.47" height="32.47"/><rect class="cls-11" x="504.34" y="48.79" width="32.47" height="32.47"/><rect class="cls-11" x="628.3" y="89.99" width="32.47" height="32.47"/><rect class="cls-11" x="380.56" y="131.39" width="32.47" height="32.47"/><rect class="cls-11" x="504.37" y="131.35" width="32.47" height="32.47"/><rect class="cls-11" x="545.63" y="131.34" width="32.47" height="32.47"/><rect class="cls-11" x="586.9" y="131.33" width="32.47" height="32.47"/><rect class="cls-11" x="380.57" y="172.66" width="32.47" height="32.47"/><rect class="cls-11" x="545.65" y="172.61" width="32.47" height="32.47"/><rect class="cls-11" x="586.92" y="172.6" width="32.47" height="32.47"/><rect class="cls-11" x="628.18" y="172.59" width="32.47" height="32.47"/><rect class="cls-11" x="380.64" y="213.99" width="32.47" height="32.47"/><rect class="cls-11" x="545.71" y="213.93" width="32.47" height="32.47"/><rect class="cls-11" x="628.25" y="213.91" width="32.47" height="32.47"/><rect class="cls-11" x="380.68" y="90.07" width="32.47" height="32.47"/><g class="cls-12"><rect class="cls-13" x="421.87" y="7.46" width="32.47" height="32.47"/><rect class="cls-13" x="463.14" y="7.45" width="32.47" height="32.47"/><rect class="cls-13" x="504.41" y="7.44" width="32.47" height="32.47"/><rect class="cls-13" x="545.68" y="7.43" width="32.47" height="32.47"/><rect class="cls-13" x="339.33" y="7.49" width="32.47" height="32.47"/><rect class="cls-13" x="421.86" y="48.87" width="32.47" height="32.47"/><rect class="cls-13" x="463.12" y="48.86" width="32.47" height="32.47"/><rect class="cls-13" x="545.66" y="48.83" width="32.47" height="32.47"/><rect class="cls-13" x="586.93" y="48.82" width="32.47" height="32.47"/><rect class="cls-13" x="628.2" y="48.81" width="32.47" height="32.47"/><rect class="cls-13" x="339.32" y="48.7" width="32.47" height="32.47"/><rect class="cls-13" x="421.82" y="90.11" width="32.47" height="32.47"/><rect class="cls-13" x="463.08" y="90.1" width="32.47" height="32.47"/><rect class="cls-13" x="504.35" y="90.09" width="32.47" height="32.47"/><rect class="cls-13" x="545.62" y="90.07" width="32.47" height="32.47"/><rect class="cls-13" x="586.89" y="90.06" width="32.47" height="32.47"/><rect class="cls-13" x="339.28" y="90.13" width="32.47" height="32.47"/><rect class="cls-13" x="421.88" y="131.43" width="32.47" height="32.47"/><rect class="cls-13" x="463.15" y="131.42" width="32.47" height="32.47"/><rect class="cls-13" x="628.23" y="131.37" width="32.47" height="32.47"/><rect class="cls-13" x="339.34" y="131.46" width="32.47" height="32.47"/><rect class="cls-13" x="421.89" y="172.7" width="32.47" height="32.47"/><rect class="cls-13" x="463.16" y="172.69" width="32.47" height="32.47"/><rect class="cls-13" x="504.43" y="172.68" width="32.47" height="32.47"/><rect class="cls-13" x="339.36" y="172.73" width="32.47" height="32.47"/><rect class="cls-13" x="421.77" y="214.03" width="32.47" height="32.47"/><rect class="cls-13" x="463.04" y="214.02" width="32.47" height="32.47"/><rect class="cls-13" x="504.31" y="214" width="32.47" height="32.47"/><rect class="cls-13" x="586.85" y="213.98" width="32.47" height="32.47"/><rect class="cls-13" x="339.23" y="214.05" width="32.47" height="32.47"/></g></svg>