<svg id="Layer_1" data-name="Layer 1" xmlns="http://www.w3.org/2000/svg" viewBox="0 0 1000 161.02"><defs><style>.cls-1,.cls-13{fill:#7a7656;}.cls-1,.cls-10,.cls-2,.cls-3,.cls-4,.cls-5,.cls-6,.cls-7,.cls-8,.cls-9{isolation:isolate;}.cls-2{fill:#837e5b;}.cls-3{fill:#8d8860;}.cls-4{fill:#969165;}.cls-5{fill:#a09b6a;}.cls-6{fill:#a9a470;}.cls-7{fill:#b2ae76;}.cls-8{fill:#bcb77b;}.cls-9{fill:#c5c181;}.cls-10{fill:#cfca86;}.cls-11{fill:#d8d48b;}.cls-12{opacity:0.5;}</style></defs><title>blockchange-logo</title><path class="cls-1" d="M279.19,51.1h29c10.74,0,16.73,6.74,16.73,15,0,7.37-4.74,12.36-10.24,13.48,6.25,1,11.37,7.25,11.37,14.49,0,9.11-6.12,15.86-17.11,15.86H279.19ZM306,75.44c5.24,0,8.24-3.12,8.24-7.61s-3-7.62-8.24-7.62H289.56V75.44Zm.37,25.35c5.62,0,9-3.12,9-8.24,0-4.37-3.12-8.12-9-8.12h-17v16.36Z"/><path class="cls-2" d="M345.12,51.1h10.36v49.69h26v9.12H345.25V51.1Z"/><path class="cls-3" d="M424.41,50.1C442,50.1,454.5,63,454.5,80.56S442,111,424.41,111s-30.09-12.86-30.09-30.47S406.68,50.1,424.41,50.1Zm0,9.11c-11.86,0-19.48,9.12-19.48,21.23s7.62,21.23,19.48,21.23,19.48-9.12,19.48-21.23S436.15,59.21,424.41,59.21Z"/><path class="cls-4" d="M470.61,80.56c0-18.1,13.48-30.46,30.46-30.46,12.36,0,19.73,6.12,24.1,13.23l-8.86,4.5a17.76,17.76,0,0,0-15.24-8.62c-11.23,0-19.85,8.87-19.85,21.23s8.62,21.22,19.85,21.22a17.35,17.35,0,0,0,15.24-8.61l8.86,4.49c-4.49,7.12-11.74,13.24-24.1,13.24C484.09,110.9,470.61,98.54,470.61,80.56Z"/><path class="cls-5" d="M557.64,85.06l-5.12,6v18.73H542.15V51h10.37v28.1l23-28.1h12.74L564.38,78.69l25.72,31.09H577.36Z"/><path class="cls-6" d="M599.59,80.56c0-18.1,13.48-30.46,30.46-30.46,12.37,0,19.73,6.12,24.1,13.23l-8.86,4.5a17.75,17.75,0,0,0-15.24-8.62c-11.23,0-19.85,8.87-19.85,21.23s8.62,21.22,19.85,21.22a17.34,17.34,0,0,0,15.24-8.61l8.86,4.49c-4.49,7.12-11.73,13.24-24.1,13.24C613.07,110.9,599.59,98.54,599.59,80.56Z"/><path class="cls-7" d="M712.09,84.18H681.5v25.73H671.13V51.1H681.5V75.19h30.59V51.1h10.36v58.81H712.09Z"/><path class="cls-8" d="M781,98.54H753.17l-4.37,11.24H737.56L760.66,51h12.86l23.1,58.81H785.38Zm-25-9h22.1l-11-29.71Z"/><path class="cls-9" d="M822.22,67v42.83H811.85V51h10.62l30.09,41.71V51h10.36v58.81h-10Z"/><path class="cls-10" d="M912.49,50.1a27.72,27.72,0,0,1,23.73,12.23l-8.5,4.75a18.84,18.84,0,0,0-15.23-7.87c-11.61,0-20.23,8.87-20.23,21.23s8.62,21.35,20.23,21.35a22.54,22.54,0,0,0,14-5.24V87.43H908.87V78.32h27.84v22.1A31.66,31.66,0,0,1,912.49,111c-17,0-30.84-12.11-30.84-30.47S895.39,50.1,912.49,50.1Z"/><path class="cls-11" d="M956.32,51.1h40.33v9.11h-30V75.44H996v9.12H966.68v16.36h30V110H956.32Z"/><rect class="cls-11" x="30.36" y="2.38" width="21.23" height="21.23"/><rect class="cls-11" x="165.25" y="2.34" width="21.23" height="21.23"/><rect class="cls-11" x="192.23" y="2.33" width="21.23" height="21.23"/><rect class="cls-11" x="30.35" y="29.32" width="21.23" height="21.23"/><rect class="cls-11" x="111.28" y="29.42" width="21.23" height="21.23"/><rect class="cls-11" x="192.32" y="56.36" width="21.23" height="21.23"/><rect class="cls-11" x="30.37" y="83.42" width="21.23" height="21.23"/><rect class="cls-11" x="111.3" y="83.4" width="21.23" height="21.23"/><rect class="cls-11" x="138.28" y="83.39" width="21.23" height="21.23"/><rect class="cls-11" x="165.26" y="83.38" width="21.23" height="21.23"/><rect class="cls-11" x="30.37" y="110.4" width="21.23" height="21.23"/><rect class="cls-11" x="138.29" y="110.37" width="21.23" height="21.23"/><rect class="cls-11" x="165.27" y="110.36" width="21.23" height="21.23"/><rect class="cls-11" x="192.24" y="110.35" width="21.23" height="21.23"/><rect class="cls-11" x="30.42" y="137.42" width="21.23" height="21.23"/><rect class="cls-11" x="138.33" y="137.38" width="21.23" height="21.23"/><rect class="cls-11" x="192.29" y="137.37" width="21.23" height="21.23"/><rect class="cls-11" x="30.45" y="56.41" width="21.23" height="21.23"/><g class="cls-12"><rect class="cls-13" x="57.37" y="2.41" width="21.23" height="21.23"/><rect class="cls-13" x="84.35" y="2.4" width="21.23" height="21.23"/><rect class="cls-13" x="111.33" y="2.39" width="21.23" height="21.23"/><rect class="cls-13" x="138.31" y="2.38" width="21.23" height="21.23"/><rect class="cls-13" x="3.42" y="2.42" width="21.23" height="21.23"/><rect class="cls-13" x="57.36" y="29.48" width="21.23" height="21.23"/><rect class="cls-13" x="84.34" y="29.47" width="21.23" height="21.23"/><rect class="cls-13" x="138.3" y="29.45" width="21.23" height="21.23"/><rect class="cls-13" x="165.28" y="29.44" width="21.23" height="21.23"/><rect class="cls-13" x="192.25" y="29.44" width="21.23" height="21.23"/><rect class="cls-13" x="3.41" y="29.37" width="21.23" height="21.23"/><rect class="cls-13" x="57.34" y="56.44" width="21.23" height="21.23"/><rect class="cls-13" x="84.32" y="56.43" width="21.23" height="21.23"/><rect class="cls-13" x="111.29" y="56.42" width="21.23" height="21.23"/><rect class="cls-13" x="138.27" y="56.41" width="21.23" height="21.23"/><rect class="cls-13" x="165.25" y="56.4" width="21.23" height="21.23"/><rect class="cls-13" x="3.38" y="56.45" width="21.23" height="21.23"/><rect class="cls-13" x="57.38" y="83.45" width="21.23" height="21.23"/><rect class="cls-13" x="84.36" y="83.44" width="21.23" height="21.23"/><rect class="cls-13" x="192.27" y="83.41" width="21.23" height="21.23"/><rect class="cls-13" x="3.42" y="83.47" width="21.23" height="21.23"/><rect class="cls-13" x="57.39" y="110.43" width="21.23" height="21.23"/><rect class="cls-13" x="84.37" y="110.42" width="21.23" height="21.23"/><rect class="cls-13" x="111.35" y="110.41" width="21.23" height="21.23"/><rect class="cls-13" x="3.43" y="110.45" width="21.23" height="21.23"/><rect class="cls-13" x="57.31" y="137.44" width="21.23" height="21.23"/><rect class="cls-13" x="84.29" y="137.43" width="21.23" height="21.23"/><rect class="cls-13" x="111.26" y="137.43" width="21.23" height="21.23"/><rect class="cls-13" x="165.22" y="137.41" width="21.23" height="21.23"/><rect class="cls-13" x="3.35" y="137.46" width="21.23" height="21.23"/></g></svg>