<svg id="Layer_1" data-name="Layer 1" xmlns="http://www.w3.org/2000/svg" viewBox="0 0 2888 1244"><defs><style>.cls-1{opacity:0.3;}.cls-2,.cls-3{fill:none;stroke:#d8d48b;stroke-miterlimit:10;}.cls-2{stroke-width:0.75px;}</style></defs><title>blockchange-bg-blocks</title><g class="cls-1"><rect class="cls-2" x="2493.32" y="26.13" width="162.19" height="162.19"/><rect class="cls-2" x="1465.17" y="26.19" width="162.19" height="162.19"/><rect class="cls-2" x="1259.55" y="26.1" width="162.19" height="162.19"/><rect class="cls-2" x="1876.91" y="231.98" width="162.19" height="162.19"/><rect class="cls-2" x="1259.55" y="437.91" width="162.19" height="162.19"/><rect class="cls-2" x="2493.38" y="643.84" width="162.19" height="162.19"/><rect class="cls-2" x="1876.5" y="643.83" width="162.19" height="162.19"/><rect class="cls-2" x="1670.87" y="643.86" width="162.19" height="162.19"/><rect class="cls-2" x="1465.15" y="849.53" width="162.19" height="162.19"/><rect class="cls-2" x="1259.52" y="849.44" width="162.19" height="162.19"/><rect class="cls-2" x="2493.36" y="1055.37" width="162.19" height="162.19"/><rect class="cls-2" x="1670.84" y="1055.4" width="162.19" height="162.19"/><rect class="cls-2" x="1259.59" y="1055.34" width="162.19" height="162.19"/><rect class="cls-2" x="2493.32" y="437.94" width="162.19" height="162.19"/></g><g class="cls-1"><rect class="cls-3" x="2082.09" y="26.35" width="162.19" height="162.19"/><rect class="cls-3" x="1876.46" y="26.39" width="162.19" height="162.19"/><rect class="cls-3" x="1670.83" y="26.43" width="162.19" height="162.19"/><rect class="cls-3" x="2698.97" y="26.37" width="162.19" height="162.19"/><rect class="cls-3" x="2288.19" y="232.31" width="162.19" height="162.19"/><rect class="cls-3" x="2082.56" y="232.34" width="162.19" height="162.19"/><rect class="cls-3" x="1465.68" y="232.33" width="162.19" height="162.19"/><rect class="cls-3" x="1260.05" y="232.36" width="162.19" height="162.19"/><rect class="cls-3" x="2699.45" y="232.36" width="162.19" height="162.19"/><rect class="cls-3" x="2287.72" y="438.25" width="162.19" height="162.19"/><rect class="cls-3" x="2082.09" y="438.16" width="162.19" height="162.19"/><rect class="cls-3" x="1670.83" y="438.23" width="162.19" height="162.19"/><rect class="cls-3" x="1465.2" y="438.27" width="162.19" height="162.19"/><rect class="cls-3" x="2698.98" y="438.18" width="162.19" height="162.19"/><rect class="cls-3" x="2287.66" y="644.15" width="162.19" height="162.19"/><rect class="cls-3" x="1259.51" y="644.09" width="162.19" height="162.19"/><rect class="cls-3" x="2698.92" y="644.08" width="162.19" height="162.19"/><rect class="cls-3" x="2287.69" y="849.78" width="162.19" height="162.19"/><rect class="cls-3" x="1876.44" y="849.73" width="162.19" height="162.19"/><rect class="cls-3" x="2698.95" y="849.71" width="162.19" height="162.19"/><rect class="cls-3" x="2287.76" y="1055.69" width="162.19" height="162.19"/><rect class="cls-3" x="2082.13" y="1055.6" width="162.19" height="162.19"/><rect class="cls-3" x="1465.24" y="1055.71" width="162.19" height="162.19"/><rect class="cls-3" x="2699.02" y="1055.61" width="162.19" height="162.19"/></g><g class="cls-1"><rect class="cls-3" x="26.36" y="27.03" width="162.19" height="162.19"/><rect class="cls-3" x="26.36" y="1055.12" width="162.19" height="162.19"/><rect class="cls-3" x="232.2" y="26.66" width="162.19" height="162.19"/><rect class="cls-3" x="232.2" y="643.56" width="162.19" height="162.19"/><rect class="cls-3" x="644" y="643.93" width="162.19" height="162.19"/><rect class="cls-3" x="644" y="849.52" width="162.19" height="162.19"/><rect class="cls-3" x="644" y="1055.12" width="162.19" height="162.19"/><rect class="cls-3" x="849.72" y="27.03" width="162.19" height="162.19"/><rect class="cls-3" x="1055.56" y="849.52" width="162.19" height="162.19"/><rect class="cls-3" x="438.16" y="27.03" width="162.19" height="162.19"/></g><g class="cls-1"><rect class="cls-2" x="26.61" y="438.34" width="162.19" height="162.19"/><rect class="cls-2" x="26.61" y="643.93" width="162.19" height="162.19"/><rect class="cls-2" x="26.61" y="849.52" width="162.19" height="162.19"/><rect class="cls-2" x="232.57" y="232.25" width="162.19" height="162.19"/><rect class="cls-2" x="232.57" y="437.84" width="162.19" height="162.19"/><rect class="cls-2" x="232.57" y="1054.74" width="162.19" height="162.19"/><rect class="cls-2" x="438.41" y="232.62" width="162.19" height="162.19"/><rect class="cls-2" x="438.41" y="643.93" width="162.19" height="162.19"/><rect class="cls-2" x="438.41" y="849.52" width="162.19" height="162.19"/><rect class="cls-2" x="644.38" y="438.34" width="162.19" height="162.19"/><rect class="cls-2" x="849.97" y="232.62" width="162.19" height="162.19"/><rect class="cls-2" x="849.97" y="643.93" width="162.19" height="162.19"/><rect class="cls-2" x="1055.81" y="438.34" width="162.19" height="162.19"/><rect class="cls-2" x="1055.81" y="1055.12" width="162.19" height="162.19"/></g></svg>